<?xml version="1.0" standalone="no"?>
<!DOCTYPE svg PUBLIC "-//W3C//DTD SVG 20010904//EN"
 "http://www.w3.org/TR/2001/REC-SVG-20010904/DTD/svg10.dtd">
<svg version="1.0" xmlns="http://www.w3.org/2000/svg"
 width="987.000000pt" height="987.000000pt" viewBox="0 0 987.000000 987.000000"
 preserveAspectRatio="xMidYMid meet">
<metadata>
Created by potrace 1.14, written by Peter Selinger 2001-2017
</metadata>
<g transform="translate(0.000000,987.000000) scale(0.100000,-0.100000)"
fill="#000000" stroke="none">
<path d="M0 4935 l0 -4935 4935 0 4935 0 0 4935 0 4935 -4935 0 -4935 0 0
-4935z m8100 4005 c0 -5 -2 -10 -4 -10 -3 0 -8 5 -11 10 -3 6 -1 10 4 10 6 0
11 -4 11 -10z m-2120 -1168 c100 -81 -72 -403 -322 -603 -113 -90 -199 -141
-281 -164 -349 -100 -72 477 345 719 107 62 215 83 258 48z m-1795 -90 c164
-82 385 -273 475 -409 52 -78 90 -176 90 -230 0 -47 -28 -70 -95 -78 -139 -18
-327 81 -524 275 -157 154 -232 272 -233 362 -1 132 119 165 287 80z m1545
-1161 c0 -5 -7 -28 -16 -52 -9 -25 -21 -112 -28 -199 -13 -162 -14 -539 -1
-559 3 -7 11 -71 16 -144 5 -73 12 -147 15 -165 6 -31 5 -33 -18 -27 -20 5
-26 2 -30 -13 -4 -15 -20 -23 -64 -33 -33 -7 -67 -16 -77 -21 -24 -13 -44 -61
-62 -153 -7 -41 -27 -118 -44 -172 -32 -105 -70 -249 -181 -688 -81 -319 -108
-424 -117 -445 -9 -20 -21 76 -22 171 -2 129 -36 350 -87 569 -42 176 -34 254
39 373 23 38 34 47 57 47 15 0 33 -7 40 -15 7 -8 17 -15 22 -15 18 0 -28 63
-81 111 l-55 49 -99 0 c-94 0 -99 1 -94 20 7 26 5 26 -64 -11 -54 -29 -139
-107 -139 -127 0 -4 21 -8 47 -8 l47 1 19 -50 c44 -116 45 -170 10 -415 -18
-124 -42 -283 -53 -355 -12 -71 -23 -148 -27 -169 -3 -26 -8 -35 -13 -25 -4 8
-53 187 -110 399 -146 554 -178 664 -217 763 -19 48 -33 93 -30 101 3 8 19 17
36 21 61 13 64 27 25 108 -55 116 -86 252 -114 495 -6 52 -20 139 -31 195 -16
80 -19 122 -14 192 3 50 10 94 15 99 6 6 26 -2 51 -20 138 -97 219 -132 403
-175 120 -27 284 -25 439 8 212 45 335 107 488 248 100 91 119 105 119 86z
m-2659 -934 c48 -39 73 -94 71 -159 -2 -63 -11 -103 -137 -583 -306 -1166
-329 -1256 -316 -1264 18 -11 170 -45 176 -39 3 2 39 135 81 294 41 159 79
292 82 295 13 12 312 -72 312 -87 0 -13 -63 -261 -147 -572 -19 -73 -33 -136
-29 -139 11 -12 161 -51 168 -44 4 3 41 134 82 290 41 156 79 288 85 294 11
11 147 -19 157 -34 3 -5 -6 -51 -20 -103 -14 -51 -26 -101 -26 -109 0 -11 27
-22 96 -38 53 -13 99 -29 101 -36 5 -12 -53 -244 -152 -613 -19 -69 -59 -224
-90 -345 -31 -121 -60 -223 -63 -227 -4 -4 -38 2 -77 13 -38 11 -79 18 -89 17
-16 -3 -27 -34 -68 -193 -27 -104 -52 -193 -56 -197 -4 -4 -48 3 -97 17 -49
13 -93 21 -96 17 -4 -4 -35 -113 -68 -242 -34 -129 -66 -245 -71 -257 l-9 -21
-68 19 c-37 11 -255 68 -483 128 -228 59 -506 132 -618 161 -112 30 -209 58
-218 64 -12 10 -9 30 21 146 56 214 57 195 -11 214 -82 23 -84 24 -84 35 0 5
23 95 51 201 27 106 48 198 45 205 -2 7 -39 21 -81 31 -42 10 -83 23 -90 29
-11 8 -7 36 26 160 22 83 40 158 42 169 2 15 -12 22 -81 41 -46 13 -86 25 -88
27 -2 2 17 82 42 177 25 96 42 177 37 182 -4 4 -41 16 -82 26 -42 11 -79 26
-85 35 -7 12 -5 38 9 93 21 88 23 86 -60 104 -31 7 -56 19 -59 28 -6 14 58
280 69 292 6 5 288 -68 297 -77 4 -4 -2 -37 -12 -74 -14 -50 -16 -69 -7 -76 7
-5 50 -19 97 -29 71 -17 85 -23 83 -39 0 -10 -31 -129 -66 -264 -36 -135 -67
-253 -69 -264 -2 -16 11 -22 86 -43 49 -13 93 -20 97 -16 5 5 30 94 57 198
121 468 295 1130 298 1134 4 5 354 -85 361 -93 4 -4 -73 -311 -133 -528 -35
-128 -39 -120 67 -146 51 -12 93 -21 94 -20 2 2 76 282 165 623 277 1055 290
1107 305 1135 18 35 79 88 108 94 12 3 31 7 42 10 31 7 66 -3 96 -27z"/>
</g>
</svg>
