<?xml version="1.0" standalone="no"?>
<!DOCTYPE svg PUBLIC "-//W3C//DTD SVG 20010904//EN"
 "http://www.w3.org/TR/2001/REC-SVG-20010904/DTD/svg10.dtd">
<svg version="1.0" xmlns="http://www.w3.org/2000/svg"
 width="512.000000pt" height="512.000000pt" viewBox="0 0 512.000000 512.000000"
 preserveAspectRatio="xMidYMid meet">
<metadata>
Created by potrace 1.14, written by Peter Selinger 2001-2017
</metadata>
<g transform="translate(0.000000,512.000000) scale(0.100000,-0.100000)"
fill="#000000" stroke="none">
<path d="M0 4510 c0 -400 3 -610 10 -610 6 0 10 -8 10 -17 0 -13 -3 -14 -8 -6
-4 7 -9 -76 -10 -185 l-1 -197 29 111 c116 443 302 841 554 1182 52 72 169
216 186 232 3 3 25 26 49 52 l43 47 -431 1 -431 0 0 -610z m733 555 c-3 -9 -8
-14 -10 -11 -3 3 -2 9 2 15 9 16 15 13 8 -4z m-44 -77 c-12 -22 -21 -24 -13
-3 9 22 -5 18 -27 -7 l-20 -23 16 27 c19 31 60 36 44 6z m-69 -22 c0 -3 -4 -8
-10 -11 -5 -3 -10 -1 -10 4 0 6 5 11 10 11 6 0 10 -2 10 -4z m0 -56 c0 -5 -5
-10 -11 -10 -5 0 -7 5 -4 10 3 6 8 10 11 10 2 0 4 -4 4 -10z m-75 -20 c3 -5 1
-10 -4 -10 -6 0 -11 5 -11 10 0 6 2 10 4 10 3 0 8 -4 11 -10z m-32 -36 c-3 -8
-9 -14 -15 -14 -5 0 -6 5 -3 10 3 6 1 10 -4 10 -6 0 -11 4 -11 9 0 5 9 7 19 4
12 -3 17 -11 14 -19z m-23 -35 c17 -30 8 -31 -17 -3 -15 17 -17 24 -8 24 8 0
19 -9 25 -21z m23 -56 c-7 -3 -13 -11 -13 -18 0 -8 -3 -16 -7 -18 -5 -3 -8 5
-8 18 0 13 3 21 7 19 4 -2 10 1 13 7 4 5 10 7 14 3 3 -4 0 -9 -6 -11z m-107
-14 c3 -6 1 -16 -6 -22 -10 -9 -12 -8 -7 5 4 11 0 18 -11 21 -16 4 -16 5 0 6
9 0 20 -4 24 -10z m-137 -49 c0 -9 -4 -8 -9 5 -5 11 -9 27 -9 35 0 9 4 8 9 -5
5 -11 9 -27 9 -35z m186 21 c-3 -6 -14 -11 -23 -11 -13 0 -13 2 4 14 21 15 30
14 19 -3z m-90 -1 c-3 -5 -11 -10 -16 -10 -6 0 -7 5 -4 10 3 6 11 10 16 10 6
0 7 -4 4 -10z m39 -18 c2 -4 -4 -9 -15 -9 -10 -1 -19 2 -19 8 0 11 27 12 34 1z
m-111 -17 c-3 -9 -8 -14 -10 -11 -3 3 -2 9 2 15 9 16 15 13 8 -4z m87 -65 c0
-5 -7 -10 -16 -10 -8 0 -12 5 -9 10 3 6 10 10 16 10 5 0 9 -4 9 -10z m-70 -12
c0 6 4 12 10 12 5 0 7 -6 4 -14 -3 -8 -1 -17 5 -21 6 -3 11 -12 11 -18 0 -7
-7 -3 -15 7 -8 11 -15 16 -15 10 0 -5 -5 -2 -10 6 -5 8 -10 20 -10 25 0 6 5 3
10 -5 6 -10 10 -11 10 -2z m-38 -50 c-6 -6 -7 0 -4 19 5 21 7 23 10 9 2 -10 0
-22 -6 -28z m76 -40 c-2 -6 -10 -13 -16 -14 -7 -1 -8 0 -2 3 5 2 8 9 4 14 -3
5 0 9 6 9 7 0 10 -5 8 -12z m-191 -34 c-3 -3 -12 -4 -19 -1 -8 3 -5 6 6 6 11
1 17 -2 13 -5z m188 -4 c-3 -5 -12 -10 -18 -10 -7 0 -6 4 3 10 19 12 23 12 15
0z m-68 -26 c-3 -3 -12 -4 -19 -1 -8 3 -5 6 6 6 11 1 17 -2 13 -5z m-44 -42
c-3 -12 -9 -19 -14 -16 -5 3 -4 14 2 25 13 26 20 21 12 -9z m37 18 c0 -5 -5
-10 -11 -10 -5 0 -7 5 -4 10 3 6 8 10 11 10 2 0 4 -4 4 -10z m17 -45 c-7 -14
-16 -25 -20 -25 -5 0 -6 3 -4 8 2 4 7 15 10 25 4 9 11 17 16 17 5 0 4 -11 -2
-25z m-77 -169 c0 -6 -7 -1 -15 10 -8 10 -14 26 -14 34 0 16 28 -28 29 -44z
m-50 40 c0 -3 -4 -8 -10 -11 -5 -3 -10 -1 -10 4 0 6 5 11 10 11 6 0 10 -2 10
-4z m-27 -53 c-3 -7 -8 -13 -12 -13 -4 0 -8 6 -8 13 0 8 6 14 13 14 7 0 10 -6
7 -14z m-69 -49 c3 -8 2 -12 -4 -9 -6 3 -10 10 -10 16 0 14 7 11 14 -7z m109
-9 c-3 -9 -8 -14 -10 -11 -3 3 -2 9 2 15 9 16 15 13 8 -4z m-122 -126 c-9 -23
-9 -22 -8 8 1 18 6 28 10 24 4 -4 3 -18 -2 -32z m63 -5 c3 -8 2 -12 -4 -9 -6
3 -10 10 -10 16 0 14 7 11 14 -7z m-11 -49 c-3 -9 -8 -14 -10 -11 -3 3 -2 9 2
15 9 16 15 13 8 -4z m-54 -104 c-15 -5 -22 6 -14 19 6 9 10 9 16 -1 5 -8 4
-15 -2 -18z m-8 -60 c-7 -5 -11 -17 -8 -27 4 -11 -1 -30 -9 -44 -10 -16 -13
-18 -8 -5 4 11 8 31 9 45 3 38 4 40 18 40 9 0 8 -3 -2 -9z"/>
<path d="M4366 5037 c98 -104 259 -318 350 -467 158 -258 288 -553 375 -850
l28 -95 0 123 c1 80 -3 121 -9 117 -5 -3 -10 -13 -10 -22 0 -9 -3 -13 -6 -10
-4 3 1 21 9 40 15 30 16 105 17 641 l0 606 -416 0 -415 -1 77 -82z m165 -34
c-12 -20 -14 -14 -5 12 4 9 9 14 11 11 3 -2 0 -13 -6 -23z m-27 -39 c3 -8 2
-12 -4 -9 -6 3 -10 10 -10 16 0 14 7 11 14 -7z m140 -13 c4 -5 -3 -7 -14 -4
-23 6 -26 13 -6 13 8 0 17 -4 20 -9z m-104 -27 c0 -8 -19 -13 -24 -6 -3 5 1 9
9 9 8 0 15 -2 15 -3z m127 -26 c-3 -7 -5 -2 -5 12 0 14 2 19 5 13 2 -7 2 -19
0 -25z m-42 -28 c3 -5 1 -10 -4 -10 -6 0 -11 5 -11 10 0 6 2 10 4 10 3 0 8 -4
11 -10z m-14 -47 c-12 -20 -14 -14 -5 12 4 9 9 14 11 11 3 -2 0 -13 -6 -23z
m39 4 c0 -2 -10 -12 -21 -23 -22 -19 -22 -19 -10 4 10 18 31 31 31 19z m38
-38 c-3 -8 -7 -3 -11 10 -4 17 -3 21 5 13 5 -5 8 -16 6 -23z m72 -39 c18 -12
2 -12 -25 0 -13 6 -15 9 -5 9 8 0 22 -4 30 -9z m-70 -49 c0 -9 -7 -3 -15 13
-19 36 -19 47 0 22 8 -11 15 -27 15 -35z m20 39 c0 -5 -5 -10 -11 -10 -5 0 -7
5 -4 10 3 6 8 10 11 10 2 0 4 -4 4 -10z m35 -39 c3 -5 0 -13 -6 -17 -8 -4 -9
-3 -5 4 4 7 3 12 -2 12 -9 0 -22 -23 -22 -36 0 -3 10 -3 23 1 21 6 22 6 2 -10
-16 -12 -20 -13 -27 -2 -17 31 18 77 37 48z m102 -73 c-3 -8 -6 -5 -6 6 -1 11
2 17 5 13 3 -3 4 -12 1 -19z m-20 -30 c-3 -7 -5 -2 -5 12 0 14 2 19 5 13 2 -7
2 -19 0 -25z m-17 -12 c0 -10 -3 -16 -7 -13 -3 4 -12 -1 -20 -11 -13 -15 -13
-15 -4 5 13 27 14 36 2 28 -5 -3 -12 -2 -15 3 -2 4 6 8 20 8 17 0 24 -5 24
-20z m40 -42 c0 -24 -14 -32 -25 -14 -9 14 4 52 16 45 5 -4 9 -17 9 -31z m-20
-56 c0 -6 -7 -5 -15 2 -8 7 -15 17 -15 22 0 6 7 5 15 -2 8 -7 15 -17 15 -22z
m83 5 c-7 -2 -19 -2 -25 0 -7 3 -2 5 12 5 14 0 19 -2 13 -5z m47 -13 c0 -5 -5
-10 -11 -10 -5 0 -7 5 -4 10 3 6 8 10 11 10 2 0 4 -4 4 -10z m30 6 c0 -3 -4
-8 -10 -11 -5 -3 -10 -1 -10 4 0 6 5 11 10 11 6 0 10 -2 10 -4z m-53 -48 c-3
-8 -6 -5 -6 6 -1 11 2 17 5 13 3 -3 4 -12 1 -19z m-57 -3 c0 -12 -19 -12 -23
0 -4 9 -1 12 9 8 7 -3 14 -7 14 -8z m80 -59 c0 -3 -4 -8 -10 -11 -5 -3 -10 -1
-10 4 0 6 5 11 10 11 6 0 10 -2 10 -4z m60 -130 c0 -6 -4 -5 -9 3 -8 12 -12
11 -27 -3 -14 -15 -15 -19 -3 -27 20 -13 31 -11 23 4 -4 6 -4 9 0 5 14 -12 6
-23 -18 -23 -19 -1 -23 4 -21 21 3 31 27 55 43 42 6 -6 12 -16 12 -22z m-76
-2 c3 -8 2 -12 -4 -9 -6 3 -10 10 -10 16 0 14 7 11 14 -7z m107 -31 c7 -10 9
-15 5 -11 -5 4 -16 2 -25 -5 -14 -10 -14 -10 -4 4 7 9 10 19 6 22 -3 4 -4 7
-1 7 3 0 12 -8 19 -17z m25 -48 c1 -8 -2 -13 -7 -9 -5 3 -9 12 -9 21 0 19 13
9 16 -12z m-56 -6 c12 -8 10 -9 -7 -4 -15 4 -23 2 -23 -6 0 -7 -3 -10 -6 -6
-7 7 4 27 14 27 4 0 14 -5 22 -11z m34 -17 c3 -5 -1 -9 -9 -9 -8 0 -12 4 -9 9
3 4 7 8 9 8 2 0 6 -4 9 -8z m-44 -42 c0 -5 -2 -10 -4 -10 -3 0 -8 5 -11 10 -3
6 -1 10 4 10 6 0 11 -4 11 -10z m58 -75 c-3 -3 -9 2 -12 12 -6 14 -5 15 5 6 7
-7 10 -15 7 -18z m-8 -39 c0 -5 -7 -1 -15 10 -8 10 -14 24 -14 29 0 6 6 1 14
-9 8 -11 15 -24 15 -30z m34 17 c-4 -22 -3 -25 5 -13 6 8 11 10 11 4 0 -17
-27 -37 -34 -25 -6 9 12 61 21 61 2 0 1 -12 -3 -27z"/>
<path d="M4831 4544 c0 -11 3 -14 6 -6 3 7 2 16 -1 19 -3 4 -6 -2 -5 -13z"/>
<path d="M1446 4291 c-4 -6 0 -23 9 -38 12 -17 13 -23 4 -17 -11 6 -12 5 -2
-8 7 -8 10 -18 6 -21 -10 -11 -63 -8 -63 2 0 5 -6 16 -13 23 -7 7 -18 22 -25
33 -11 19 -11 18 -12 -6 0 -15 7 -32 15 -39 17 -14 11 -32 -9 -24 -11 4 -66
-19 -147 -61 -27 -14 -23 -25 8 -25 25 0 25 -1 9 -19 -16 -18 -21 -18 -62 -6
-41 12 -65 2 -26 -12 9 -4 20 -11 24 -17 8 -13 -50 -76 -69 -76 -7 0 -13 -4
-13 -10 0 -5 16 -10 35 -10 43 0 44 -12 5 -40 -31 -22 -41 -46 -15 -36 9 3 15
0 15 -9 0 -9 -10 -15 -25 -15 -17 0 -23 -4 -19 -14 4 -11 0 -13 -16 -9 -21 6
-21 5 3 -19 18 -18 24 -33 20 -47 -3 -12 0 -27 6 -34 13 -16 5 -27 -21 -27
-22 0 -23 -8 -3 -30 15 -16 24 -94 12 -106 -3 -3 -14 -1 -25 5 -12 6 -39 11
-62 11 -27 0 -43 5 -46 15 -12 29 -22 15 -14 -19 4 -19 5 -37 2 -40 -3 -4 -1
-6 5 -6 5 0 10 -7 10 -15 0 -9 -5 -14 -11 -12 -6 2 -16 -3 -23 -12 -10 -14
-14 -11 -27 21 -9 21 -16 57 -16 81 0 44 -15 67 -53 80 -9 4 -21 15 -24 24
-11 27 -45 52 -73 53 -14 0 -60 -7 -103 -15 -43 -8 -80 -15 -81 -15 -4 0 -24
-49 -64 -155 -42 -110 -52 -144 -52 -172 0 -13 -3 -22 -7 -20 -5 3 -9 -19 -10
-48 -2 -54 -50 -243 -72 -283 -14 -26 -24 -27 -57 -6 -23 16 -24 16 -17 -2 4
-11 16 -27 28 -36 11 -10 15 -17 8 -18 -6 0 -15 5 -18 10 -4 6 -11 7 -17 4 -6
-4 -8 -3 -5 3 4 6 0 19 -8 29 -15 18 -15 18 -9 -1 6 -16 5 -18 -7 -7 -18 17
-39 15 -39 -3 0 -8 6 -15 14 -15 8 0 17 -7 20 -16 4 -9 9 -14 13 -11 3 4 12
-1 19 -11 16 -21 18 -40 3 -25 -9 9 -17 7 -32 -8 -11 -10 -17 -22 -14 -26 4
-3 7 -1 7 6 0 7 5 9 10 6 5 -3 10 -1 10 5 0 17 17 3 23 -20 3 -11 1 -18 -4
-14 -5 3 -9 0 -9 -5 0 -6 -4 -11 -10 -11 -5 0 -7 7 -4 15 5 11 2 13 -10 9 -9
-4 -18 0 -22 9 -3 9 -12 13 -20 10 -9 -3 -13 -12 -10 -19 4 -10 -3 -14 -22
-14 -15 0 -34 -5 -42 -10 -11 -7 -5 -10 25 -10 43 0 80 -17 57 -27 -6 -2 -9
-10 -5 -15 4 -7 -2 -9 -17 -5 -17 4 -20 3 -11 -6 15 -15 14 -27 -4 -27 -8 0
-15 -7 -15 -15 0 -9 -6 -12 -15 -8 -10 3 -15 0 -13 -8 2 -8 16 -16 31 -19 39
-7 39 -24 0 -28 -18 -2 -33 -7 -33 -13 0 -18 5 -24 17 -21 14 3 16 -8 7 -32
-5 -13 -9 -12 -25 8 -10 13 -19 29 -19 35 0 6 -6 11 -14 11 -11 0 -13 -7 -7
-28 9 -29 -8 -99 -21 -94 -11 3 -48 -36 -48 -51 0 -7 7 -22 14 -33 17 -24 17
-67 0 -60 -9 3 -12 -67 -12 -284 l-1 -289 26 -21 c15 -12 41 -20 61 -20 32 0
35 -2 22 -15 -16 -15 -60 -10 -60 7 0 6 -7 5 -15 -2 -13 -11 -14 -10 -9 5 6
14 4 16 -6 10 -8 -5 -11 -4 -6 3 3 6 2 13 -3 16 -13 8 -11 -55 2 -71 5 -7 18
-13 28 -13 10 0 20 -3 22 -7 3 -5 -8 -8 -24 -8 -16 0 -29 4 -29 9 0 5 -3 6 -6
3 -4 -4 -1 -13 6 -22 8 -10 9 -15 1 -15 -16 0 -14 -332 2 -342 9 -6 9 -8 0 -8
-10 0 -13 -144 -13 -685 l0 -685 440 0 c345 0 440 3 440 13 0 9 2 9 9 -1 11
-18 93 -12 99 7 3 10 0 12 -11 8 -9 -3 -19 -2 -22 4 -4 5 -12 6 -18 3 -7 -4
-9 -3 -4 1 21 23 88 1 72 -25 -3 -6 38 -9 110 -9 l117 0 -8 42 c-5 23 -7 53
-6 67 0 14 2 64 4 112 2 47 6 84 11 81 4 -2 7 6 8 19 0 13 1 37 2 54 1 17 -2
31 -8 29 -5 -1 -7 0 -2 2 4 3 5 9 2 14 -4 5 1 6 10 3 13 -5 14 -2 5 20 -5 14
-7 26 -4 26 4 0 1 7 -6 16 -8 8 -9 14 -4 13 20 -3 35 1 29 10 -3 5 2 16 10 24
20 21 19 37 -2 37 -15 0 -16 2 -3 10 13 9 13 10 0 10 -12 0 -13 2 -1 9 10 6
10 10 1 13 -8 2 -10 15 -5 41 6 32 11 37 43 43 47 9 83 -5 102 -41 8 -16 20
-35 27 -42 14 -15 27 -112 21 -148 -3 -13 -2 -22 3 -20 8 6 14 -19 28 -125 22
-166 25 -197 23 -257 l-2 -63 70 0 c72 0 84 8 56 39 -32 38 -49 155 -24 163 7
3 20 -4 29 -15 14 -19 14 -23 -2 -56 -19 -39 -16 -54 20 -100 l24 -31 173 0
174 0 1 28 1 27 8 -25 8 -25 1 25 c1 15 -4 31 -11 38 -9 9 -9 12 0 12 7 0 12
5 12 12 0 6 7 19 16 29 12 14 13 24 6 53 -7 24 -7 38 0 42 5 3 8 27 6 53 -3
44 -2 46 23 46 21 0 25 3 22 20 -4 16 -2 17 5 5 6 -8 9 -41 8 -72 -1 -32 2
-58 6 -58 4 0 8 22 8 50 0 43 2 49 18 43 14 -5 13 -3 -3 10 -13 11 -15 16 -6
17 11 0 11 3 1 15 -10 12 -6 13 27 9 21 -2 32 -2 26 2 -18 8 -16 31 3 38 22 8
22 9 22 -19 0 -34 9 -42 32 -27 24 15 74 -4 66 -25 -3 -7 -1 -13 4 -13 6 0 10
-12 10 -27 0 -14 3 -23 7 -19 4 4 7 26 8 49 0 38 3 42 30 48 32 7 32 8 1 14
-20 4 -39 26 -30 35 3 3 12 -4 20 -14 8 -11 14 -16 14 -12 0 5 7 3 15 -4 9 -7
13 -20 10 -28 -3 -8 2 -16 14 -19 13 -3 17 -11 13 -26 -5 -20 -6 -20 -13 -1
-5 12 -8 -2 -9 -41 -3 -77 0 -99 12 -106 6 -4 7 -17 3 -30 -5 -18 -4 -21 4 -9
8 11 9 -4 4 -53 -4 -44 -2 -67 5 -67 7 0 9 35 6 102 -3 101 1 118 31 118 6 -1
2 -5 -7 -11 -23 -13 -24 -49 -1 -49 13 0 14 -3 5 -12 -15 -15 -16 -32 -2 -23
6 4 10 -6 10 -22 0 -22 -2 -25 -10 -13 -8 12 -10 11 -10 -7 0 -12 5 -25 11
-29 15 -9 30 16 23 39 -3 11 0 17 10 17 21 0 21 29 0 37 -13 5 -13 8 -2 15 11
8 11 10 -1 15 -11 4 -8 10 10 25 13 11 18 17 12 13 -7 -3 -13 -1 -13 4 0 6 6
11 13 11 7 0 12 14 12 35 0 32 -1 34 -14 18 -12 -16 -13 -16 -9 9 4 21 1 26
-14 23 -10 -2 -18 0 -18 6 0 5 -5 8 -11 6 -6 -1 -14 5 -16 13 -4 13 -3 13 6 0
10 -13 11 -13 11 0 0 13 1 13 10 0 13 -21 13 -3 -1 22 -8 15 -8 19 0 14 6 -4
11 -2 11 3 0 6 -9 11 -21 11 -11 0 -17 4 -14 10 3 5 1 10 -5 10 -6 0 -8 5 -4
11 5 8 10 6 16 -5 10 -18 38 -22 38 -5 0 5 -4 7 -10 4 -5 -3 -10 -1 -10 4 0 6
5 11 11 11 5 0 7 5 4 10 -3 6 -2 10 2 10 13 0 11 40 -2 40 -5 0 -1 7 9 15 20
15 20 15 0 15 -16 0 -17 2 -4 10 11 7 11 10 2 10 -7 0 -11 4 -7 9 3 5 1 12 -5
16 -5 3 -10 14 -10 23 0 15 2 15 11 2 8 -11 12 -12 16 -2 2 6 17 12 31 12 l27
1 -29 15 c-33 18 -26 31 23 40 l34 7 -7 -53 c-4 -28 -18 -74 -31 -101 -13 -27
-20 -49 -16 -49 3 0 4 -31 1 -70 -4 -57 -2 -74 12 -92 22 -29 22 -56 2 -140
-11 -46 -25 -76 -46 -97 -16 -17 -28 -36 -26 -43 9 -26 65 46 78 100 8 28 18
52 22 52 12 0 0 -63 -22 -123 -18 -46 -18 -47 2 -47 10 0 16 5 13 10 -3 5 -2
10 4 10 5 0 11 6 14 13 2 6 2 2 0 -11 l-3 -22 1255 0 1255 0 0 800 c0 626 -3
800 -13 800 -8 0 -7 4 3 10 12 8 11 10 -7 10 -18 0 -23 -6 -23 -27 0 -32 -14
-22 -16 12 -1 18 5 24 27 29 l28 5 0 115 c-1 110 -2 115 -23 118 -17 2 -20 9
-18 33 2 23 0 26 -8 15 -12 -18 -13 -1 -1 19 7 11 10 9 15 -7 4 -11 5 -26 4
-33 -2 -7 4 -14 13 -16 15 -4 17 10 18 119 0 86 -3 125 -12 130 -9 6 -9 8 0 8
18 0 17 210 -2 246 -8 16 -15 25 -15 20 0 -5 -9 -1 -20 9 -11 10 -20 22 -20
27 0 9 42 4 60 -7 6 -4 10 23 10 76 0 63 -4 87 -17 101 -15 17 -15 19 0 36 14
15 17 37 15 113 -1 59 -3 74 -5 41 -2 -30 -8 -50 -14 -47 -5 4 -9 0 -10 -7 0
-7 -4 -4 -9 7 -7 16 -9 17 -9 3 -1 -12 -9 -16 -28 -15 -23 2 -29 9 -40 46 -7
24 -10 48 -6 54 3 6 2 8 -3 4 -5 -3 -18 14 -27 38 -10 24 -25 46 -34 49 -11 5
-14 2 -9 -10 6 -14 4 -15 -9 -4 -9 7 -21 23 -26 34 -10 20 -10 20 5 2 9 -11
19 -17 23 -13 3 4 -2 17 -13 29 -10 13 -12 17 -4 11 16 -15 50 -17 50 -5 0 5
-13 21 -30 35 -32 29 -37 42 -17 50 10 4 10 6 0 6 -7 1 -13 12 -13 25 0 13 -6
27 -13 29 -6 3 0 6 15 6 26 1 26 3 17 31 -6 17 -15 30 -21 30 -5 0 -6 5 -3 10
3 6 1 10 -5 10 -20 0 -120 73 -113 83 3 5 1 7 -5 3 -6 -3 -40 9 -77 28 -36 19
-62 36 -57 40 5 3 29 9 53 12 39 7 41 9 19 15 -23 6 -23 7 8 8 17 1 32 5 32
11 0 12 -45 24 -59 15 -25 -15 -9 13 19 33 32 24 40 49 15 49 -8 0 -15 -4 -15
-9 0 -25 -86 -68 -135 -68 -4 0 13 18 37 40 23 22 50 40 59 40 9 0 19 7 23 15
4 11 -2 15 -22 15 -19 0 -33 -9 -47 -30 -31 -46 -118 -83 -95 -40 7 14 7 40 0
87 -15 98 -19 113 -31 110 -6 -1 -13 6 -14 16 -2 11 -5 20 -7 21 -2 2 -14 11
-28 21 -14 9 -17 15 -8 12 15 -5 16 -4 6 13 -7 10 -21 23 -33 28 -11 5 -45 21
-75 36 -30 14 -70 26 -87 26 -29 0 -36 6 -57 48 -40 76 -110 140 -141 128 -9
-3 -14 -2 -11 3 9 14 -55 22 -71 9 -12 -10 -17 -9 -24 3 -15 28 -97 52 -182
53 -77 1 -80 0 -106 -31 l-27 -33 -22 30 c-12 16 -22 33 -22 38 0 5 -9 17 -21
28 -17 15 -36 19 -93 19 -69 0 -75 -2 -119 -38 -61 -50 -68 -64 -74 -154 l-6
-75 -24 28 -24 28 -22 -26 c-40 -46 -125 -85 -205 -93 -77 -8 -106 2 -95 32 4
11 2 14 -8 11 -14 -5 -27 -58 -29 -118 -1 -51 -11 -64 -42 -50 -21 10 -32 7
-77 -19 -28 -17 -54 -31 -58 -31 -10 0 -78 -63 -95 -89 -10 -14 -20 -51 -24
-83 -5 -48 -12 -62 -45 -94 -23 -22 -39 -48 -39 -61 0 -24 -14 -31 -25 -13 -5
8 -11 7 -21 -1 -8 -6 -32 -12 -53 -13 -22 0 -37 -4 -35 -8 3 -5 2 -17 -1 -28
-6 -20 -8 -19 -42 10 -42 37 -72 50 -118 50 -42 0 -72 34 -50 56 7 8 21 11 29
8 10 -4 16 -1 16 9 0 8 -12 18 -26 21 l-27 7 22 15 c12 9 27 14 34 11 7 -3 13
5 13 19 2 24 -6 30 -20 17 -4 -5 -24 -8 -44 -8 -26 0 -37 -4 -37 -15 0 -11
-12 -15 -39 -16 -29 -1 -34 1 -22 8 10 5 23 7 31 4 9 -3 12 0 8 10 -3 8 1 14
11 14 9 0 16 4 16 9 0 9 -83 6 -100 -4 -5 -3 -10 -1 -10 4 0 14 -35 14 -63 0
-21 -10 -21 -9 -3 5 10 8 38 23 62 33 32 13 44 23 43 38 0 11 -3 14 -6 8 -2
-7 -20 -13 -38 -13 -19 0 -37 -4 -40 -10 -3 -5 -26 -10 -51 -10 -28 0 -44 -4
-44 -12 0 -9 -3 -8 -9 2 -12 18 -5 30 18 30 10 0 21 8 23 18 4 15 0 17 -23 14
-22 -3 -29 0 -29 12 0 10 -6 13 -15 10 -12 -5 -15 2 -15 30 0 23 5 36 13 36
19 0 37 -21 37 -42 0 -10 5 -18 10 -18 6 0 10 11 10 25 0 17 -9 31 -30 43 -27
17 -28 19 -13 35 16 16 16 17 -2 18 -17 0 -16 2 5 10 l24 10 -26 22 c-18 15
-28 38 -35 77 -6 30 -12 61 -14 69 -3 10 7 17 31 21 45 8 60 17 60 37 0 15 -2
14 -18 0 -21 -19 -47 -23 -36 -5 5 8 -2 9 -24 5 -18 -4 -33 -2 -33 3 -3 20 -5
25 -13 39 -7 11 -5 13 6 9 8 -4 20 -3 27 2 8 4 1 9 -19 14 -30 5 -31 8 -25 38
7 30 6 31 -9 19 -9 -8 -18 -12 -19 -10 -25 35 -35 59 -27 64 6 3 10 11 10 17
0 7 -5 6 -14 -1 -20 -17 -83 14 -67 33 16 19 3 25 -28 13 -26 -9 -33 -7 -71
23 -23 18 -45 42 -49 53 -5 14 -10 17 -15 8z m1999 -226 c-22 -8 -44 -14 -50
-14 -18 1 49 28 70 28 11 0 2 -6 -20 -14z m292 -1 c-3 -3 -12 -4 -19 -1 -8 3
-5 6 6 6 11 1 17 -2 13 -5z m-37 -19 c7 -8 18 -15 25 -15 7 0 18 -7 25 -15 7
-8 15 -13 19 -11 3 2 17 -2 31 -10 l25 -15 -30 7 c-16 4 -41 7 -54 7 -18 -1
-20 1 -10 8 11 7 11 9 -3 9 -10 0 -18 4 -18 9 0 5 -9 13 -20 16 -11 3 -20 11
-20 16 0 14 16 11 30 -6z m195 -6 c5 -5 -6 -4 -25 2 -45 15 -54 24 -15 15 17
-4 34 -12 40 -17z m-10 -69 c-3 -5 -14 -10 -23 -9 -14 0 -13 2 3 9 27 11 27
11 20 0z m-2465 -30 c0 -16 -4 -30 -10 -30 -5 0 -10 3 -10 8 0 4 -3 17 -6 30
-5 16 -2 22 10 22 11 0 16 -9 16 -30z m2571 -12 c11 -21 11 -22 -4 -9 -10 7
-17 17 -17 22 0 15 9 10 21 -13z m52 -59 c12 -12 40 -30 62 -40 34 -16 36 -17
10 -12 -32 6 -73 32 -95 58 -19 22 -3 18 23 -6z m-2533 -19 c0 -5 -5 -10 -11
-10 -5 0 -7 5 -4 10 3 6 8 10 11 10 2 0 4 -4 4 -10z m1759 -46 c18 -30 30 -58
26 -62 -9 -9 -55 45 -55 64 0 8 -4 14 -8 14 -4 0 -8 9 -9 20 -3 33 10 23 46
-36z m-2159 22 c0 -3 -4 -8 -10 -11 -5 -3 -10 -1 -10 4 0 6 5 11 10 11 6 0 10
-2 10 -4z m400 -28 c0 -16 -3 -19 -11 -11 -6 6 -8 16 -5 22 11 17 16 13 16
-11z m40 2 c0 -5 -5 -10 -11 -10 -5 0 -7 5 -4 10 3 6 8 10 11 10 2 0 4 -4 4
-10z m60 -4 c0 -11 -19 -15 -25 -6 -3 5 1 10 9 10 9 0 16 -2 16 -4z m2800 -42
c0 -2 -9 0 -20 6 -11 6 -20 13 -20 16 0 2 9 0 20 -6 11 -6 20 -13 20 -16z
m-2890 2 c0 -3 -4 -8 -10 -11 -5 -3 -10 -1 -10 4 0 6 5 11 10 11 6 0 10 -2 10
-4z m1460 -11 c6 -8 9 -19 5 -25 -3 -5 -1 -10 4 -10 6 0 11 -5 11 -11 0 -6 -7
-9 -15 -5 -8 3 -15 3 -15 0 0 -9 28 -34 39 -34 5 0 11 -10 13 -22 2 -13 9 -22
16 -20 6 1 12 -2 12 -8 0 -16 -19 -11 -37 10 -21 24 -45 27 -36 5 3 -10 1 -15
-7 -13 -7 2 -15 -3 -18 -11 -3 -9 0 -11 9 -6 8 5 11 5 7 0 -12 -12 12 -35 36
-35 17 0 18 -2 6 -10 -10 -6 -6 -9 16 -8 43 1 58 -9 40 -28 -8 -8 -23 -14 -33
-14 -17 1 -17 2 2 16 19 15 19 16 -11 10 -49 -11 -77 19 -77 77 1 44 -10 63
-20 35 -2 -7 -4 6 -4 30 0 23 4 45 9 48 4 3 6 10 3 15 -4 5 0 9 7 9 9 0 9 3
-2 10 -12 8 -11 10 6 10 12 0 27 -7 34 -15z m1318 -36 c32 -15 77 -29 100 -30
23 -2 42 -7 42 -12 0 -15 -92 2 -146 29 -28 13 -59 34 -70 46 -15 18 -15 20
-2 9 10 -7 44 -26 76 -42z m-3540 -77 c10 -14 34 -80 36 -104 1 -3 4 -10 9
-14 10 -11 9 -64 -3 -64 -14 0 -62 22 -92 43 -16 10 -28 14 -28 8 0 -6 5 -11
11 -11 5 0 7 -5 4 -10 -3 -6 1 -13 9 -16 22 -8 20 -26 -1 -21 -10 2 -30 -3
-45 -10 -23 -11 -28 -20 -28 -51 0 -39 -22 -83 -35 -70 -4 4 -17 2 -28 -3 -15
-8 -22 -8 -28 2 -7 12 -9 11 -9 0 0 -11 -4 -10 -16 5 -8 10 -12 12 -8 4 5 -10
4 -12 -4 -5 -14 13 0 153 20 191 71 139 91 156 172 147 29 -3 56 -12 64 -21z
m2047 -23 c-4 -6 2 -5 14 3 17 11 23 10 37 -4 15 -15 15 -16 -5 -23 -30 -9
-26 -24 6 -22 23 2 28 -3 34 -33 7 -34 -3 -72 -14 -53 -3 5 -34 8 -69 7 -61
-3 -62 -2 -32 11 18 7 35 18 38 24 4 6 17 11 29 11 21 1 20 2 -5 15 -26 15
-58 11 -58 -6 0 -5 -6 -9 -12 -9 -7 1 0 11 15 24 46 37 1 29 -61 -12 -29 -19
-55 -32 -58 -29 -3 3 7 12 23 20 15 8 48 31 73 51 48 38 55 42 45 25z m-1813
-46 c35 -31 14 -47 -22 -16 -11 10 -20 21 -20 25 0 14 23 9 42 -9z m1743 -83
c3 -5 1 -10 -4 -10 -6 0 -11 5 -11 10 0 6 2 10 4 10 3 0 8 -4 11 -10z m5 -54
c0 -15 43 -36 78 -39 30 -2 18 -14 -20 -19 -20 -3 -38 0 -46 8 -7 8 -11 14 -7
14 3 0 -2 11 -11 25 -10 15 -12 25 -5 25 6 0 11 -6 11 -14z m1876 -41 c-22
-17 -56 -20 -56 -6 0 6 15 12 33 14 17 2 34 4 37 5 3 1 -4 -5 -14 -13z m-1877
-24 c18 -14 21 -20 11 -26 -8 -5 -11 -4 -7 2 13 21 -26 23 -70 3 -25 -11 -46
-20 -47 -20 -1 0 -2 9 -2 19 0 15 3 17 13 9 11 -8 12 -7 6 7 -5 14 -3 17 9 13
8 -4 21 -2 29 3 20 13 31 11 58 -10z m-9 -32 c0 -5 -7 -9 -15 -9 -9 0 -12 6
-9 15 6 15 24 11 24 -6z m1667 15 c-3 -3 -12 -4 -19 -1 -8 3 -5 6 6 6 11 1 17
-2 13 -5z m-3880 -80 c25 10 13 -31 -12 -42 -14 -6 -25 -17 -25 -24 0 -10 -3
-9 -9 1 -7 11 -12 4 -20 -25 -6 -21 -11 -48 -11 -59 0 -11 -5 -27 -10 -35 -7
-12 -10 -8 -10 15 1 46 18 115 43 169 22 49 22 49 32 22 5 -15 14 -25 22 -22z
m1793 -64 c20 -28 37 -100 24 -100 -5 0 -20 16 -34 36 -29 41 -37 51 -68 86
l-23 26 41 -12 c25 -6 49 -21 60 -36z m57 -5 c-13 -27 -14 -27 -20 -6 -3 14 0
21 9 21 8 0 14 5 14 12 0 6 3 9 6 6 3 -4 -1 -18 -9 -33z m116 13 c8 -29 -10
-52 -27 -36 -15 15 -8 58 9 58 7 0 15 -10 18 -22z m-2003 -102 c0 -2 -7 -6
-15 -10 -8 -3 -15 -1 -15 4 0 6 7 10 15 10 8 0 15 -2 15 -4z m-194 -182 c-4
-9 -9 -15 -11 -12 -3 3 -3 13 1 22 4 9 9 15 11 12 3 -3 3 -13 -1 -22z m-69
-167 c0 -7 -8 -13 -18 -13 -13 0 -15 3 -7 13 6 7 14 13 18 13 3 0 7 -6 7 -13z
m4873 -74 c0 -8 5 -11 10 -8 15 9 12 -11 -4 -24 -16 -13 -28 -1 -23 21 2 7 2
10 0 5 -7 -11 -23 2 -23 18 0 8 7 11 20 8 11 -3 20 -12 20 -20z m-10 -67 c0
-6 -7 -1 -15 10 -8 10 -15 23 -15 28 0 6 7 1 15 -10 8 -10 15 -23 15 -28z
m-100 -12 c0 -8 5 -12 11 -8 12 7 29 -13 29 -35 0 -12 -4 -11 -17 2 -10 10
-29 26 -43 37 l-25 19 23 1 c13 0 22 -6 22 -16z m88 -19 c-3 -3 -9 2 -12 12
-6 14 -5 15 5 6 7 -7 10 -15 7 -18z m22 -50 c0 -18 -36 -20 -46 -3 -5 8 0 9
14 6 12 -4 22 -2 22 3 0 5 2 9 5 9 3 0 5 -7 5 -15z m17 -27 c-3 -8 -6 -5 -6 6
-1 11 2 17 5 13 3 -3 4 -12 1 -19z m-63 -200 c51 -59 45 -67 -9 -11 -48 50
-50 53 -36 53 5 0 26 -19 45 -42z m46 -80 c0 -4 -4 -8 -9 -8 -6 0 -12 4 -15 8
-3 5 1 9 9 9 8 0 15 -4 15 -9z m5 -28 c3 -5 1 -10 -4 -10 -6 0 -11 5 -11 10 0
6 2 10 4 10 3 0 8 -4 11 -10z m-75 -100 c0 -5 -7 -7 -15 -4 -8 4 -15 8 -15 10
0 2 7 4 15 4 8 0 15 -4 15 -10z m-60 -164 c-9 -8 -11 -6 -5 12 4 15 2 22 -7
22 -9 0 -9 3 2 10 11 7 16 4 18 -11 2 -12 -2 -26 -8 -33z m-4906 3 c-7 -11
-31 11 -31 28 0 9 5 9 18 -3 10 -9 16 -21 13 -25z m4944 11 c-4 -27 -2 -29 16
-24 19 6 19 6 3 -10 -9 -10 -14 -23 -11 -29 5 -9 4 -9 -5 -1 -17 15 -24 94
-10 94 7 0 9 -12 7 -30z m-4926 -58 c-6 -2 -10 -8 -7 -12 3 -5 0 -12 -6 -16
-7 -4 -9 -3 -6 3 4 6 0 14 -9 17 -8 3 -12 2 -9 -4 3 -6 -1 -7 -10 -4 -17 7
-14 30 4 27 6 -2 11 2 11 7 0 7 8 6 22 -1 14 -8 18 -14 10 -17z m4906 3 c-3
-3 -9 2 -12 12 -6 14 -5 15 5 6 7 -7 10 -15 7 -18z m85 -41 c9 -4 17 -13 17
-20 0 -8 0 -17 1 -21 0 -4 -5 -9 -12 -12 -8 -2 -10 3 -6 18 7 28 -9 27 -18 -1
-6 -20 -8 -20 -12 -5 -2 9 -8 15 -12 13 -6 -4 -7 22 -2 42 1 2 7 1 14 -2 6 -3
20 -9 30 -12z m-93 -52 c0 -15 -2 -15 -10 -2 -13 20 -13 33 0 25 6 -3 10 -14
10 -23z m-123 -29 c-3 -10 -5 -2 -5 17 0 19 2 27 5 18 2 -10 2 -26 0 -35z
m-1184 -59 c14 -14 7 -25 -15 -22 -15 2 -24 13 -31 38 -6 23 -5 36 2 38 6 2
12 13 12 25 1 12 6 1 13 -25 6 -25 14 -50 19 -54z m1380 52 c4 4 7 2 7 -5 0
-8 -6 -11 -16 -7 -9 3 -18 6 -20 6 -2 0 -4 10 -4 23 l1 22 12 -23 c7 -12 16
-19 20 -16z m-51 -8 c-8 -8 -9 -4 -5 13 4 13 8 18 11 10 2 -7 -1 -18 -6 -23z
m92 18 c-3 -8 2 -16 13 -19 15 -4 15 -5 -3 -6 -21 -1 -39 21 -27 33 12 11 22
6 17 -8z m-1604 -50 c-6 -20 -18 -36 -25 -36 -7 0 -15 -5 -17 -12 -2 -6 -9 -8
-16 -4 -7 4 -3 18 14 44 43 62 63 66 44 8z m-77 -1 c-21 -16 -28 -12 -20 9 4
9 13 13 22 10 14 -6 13 -8 -2 -19z m1617 5 c0 -11 -2 -20 -4 -20 -2 0 -6 9 -9
20 -3 11 -1 20 4 20 5 0 9 -9 9 -20z m-160 -20 c-6 -12 -14 -19 -17 -17 -2 3
1 15 7 27 6 12 14 19 17 17 2 -3 -1 -15 -7 -27z m184 0 c-6 -6 -10 -3 -10 10
0 13 4 16 10 10 7 -7 7 -13 0 -20z m38 -20 c3 -49 2 -51 -21 -45 -17 4 -22 2
-18 -8 6 -17 -9 -44 -20 -34 -4 5 -1 12 6 16 9 6 10 11 2 15 -6 4 -9 12 -6 17
4 5 -2 9 -11 9 -14 0 -15 3 -6 12 8 8 15 8 27 -2 8 -7 19 -10 22 -6 4 4 2 11
-6 15 -10 6 -9 10 4 15 11 4 15 13 12 26 -3 11 -1 20 3 20 4 0 10 -23 12 -50z
m-4952 13 c0 -7 -8 -13 -17 -14 -17 0 -17 -1 0 -8 17 -6 16 -9 -7 -34 -14 -15
-34 -27 -43 -25 -11 2 -18 -3 -18 -12 0 -10 10 -15 33 -15 17 -1 32 3 32 7 0
4 4 8 8 8 5 0 8 -35 6 -77 -1 -48 1 -71 7 -62 5 8 9 26 9 41 0 39 10 58 26 51
10 -4 12 0 8 10 -3 9 -1 24 5 34 6 10 11 14 12 8 0 -5 2 -21 4 -35 5 -41 -17
-264 -28 -277 -6 -9 -5 -13 4 -13 9 -1 8 -5 -5 -15 -11 -8 -14 -15 -8 -15 7 0
12 -5 12 -10 0 -20 -25 -4 -37 23 -24 54 -83 268 -77 278 3 6 -1 18 -10 28
-27 30 -26 80 1 107 13 14 29 21 35 18 7 -4 8 -2 4 4 -5 8 1 11 18 10 15 -1
26 -8 26 -15z m3254 -24 c14 -7 27 -18 30 -25 6 -17 -48 1 -65 22 -14 17 0 19
35 3z m1596 -65 c0 -14 -4 -23 -10 -19 -5 3 -10 15 -10 26 0 10 5 19 10 19 6
0 10 -12 10 -26z m-1120 -24 c-8 -5 -19 -10 -25 -10 -5 0 -3 5 5 10 8 5 20 10
25 10 6 0 3 -5 -5 -10z m997 -12 c-3 -8 -6 -5 -6 6 -1 11 2 17 5 13 3 -3 4
-12 1 -19z m110 -39 c-6 -10 -19 -17 -28 -16 -19 1 -15 12 4 12 7 0 14 11 15
24 3 17 6 20 12 11 5 -7 3 -21 -3 -31z m-1605 -28 c-3 -9 -11 -25 -18 -35 -10
-15 -11 -23 -2 -33 9 -12 7 -12 -13 -3 -27 12 -32 51 -11 72 7 7 12 18 12 25
0 10 4 11 19 1 11 -7 17 -18 13 -27z m477 15 c1 6 8 11 17 11 22 0 57 -77 42
-94 -8 -10 -7 -13 3 -14 10 0 10 -2 2 -5 -24 -10 -85 77 -82 118 0 7 4 4 9 -7
5 -11 9 -15 9 -9z m1231 -46 c-23 -14 -28 -3 -16 35 l11 36 9 -31 c7 -24 6
-34 -4 -40z m-231 -7 c1 -7 -4 -13 -10 -13 -6 0 -9 7 -5 15 3 8 1 15 -3 15 -5
0 -6 10 -3 23 6 22 6 22 13 -3 4 -14 7 -31 8 -37z m71 37 c0 -5 -2 -10 -4 -10
-3 0 -8 5 -11 10 -3 6 -1 10 4 10 6 0 11 -4 11 -10z m-1280 -37 c0 -52 -10
-83 -25 -83 -41 0 -23 119 18 120 4 0 7 -17 7 -37z m1343 30 c-7 -2 -19 -2
-25 0 -7 3 -2 5 12 5 14 0 19 -2 13 -5z m-63 -23 c0 -5 -10 -10 -22 -10 -19 0
-20 2 -8 10 19 13 30 13 30 0z m-4886 -25 c-4 -8 -8 -15 -10 -15 -2 0 -4 7 -4
15 0 8 4 15 10 15 5 0 7 -7 4 -15z m361 -12 c5 -22 2 -31 -19 -46 -15 -10 -24
-23 -20 -28 9 -15 27 -10 20 6 -3 9 0 15 8 15 8 0 12 -9 11 -25 -2 -16 2 -25
11 -25 8 0 14 10 14 26 0 16 4 23 12 18 6 -4 8 -3 5 3 -4 6 -1 26 7 43 l13 33
3 -59 c1 -33 3 -74 4 -91 0 -18 4 -33 7 -33 8 0 23 -50 20 -68 -1 -7 4 -11 11
-10 7 2 16 -6 22 -17 14 -32 75 -67 105 -60 14 3 42 7 61 9 l35 4 -3 -49 c-2
-27 -8 -49 -13 -49 -5 0 -9 -7 -9 -16 0 -8 4 -13 8 -10 4 2 6 -11 4 -30 -2
-19 -8 -34 -13 -34 -5 0 -6 -12 -3 -26 5 -21 4 -25 -6 -19 -10 6 -12 -2 -7
-38 4 -30 3 -47 -4 -47 -6 0 -8 4 -4 9 3 5 1 12 -4 15 -8 5 -7 62 3 150 3 26
1 35 -5 25 -5 -8 -9 -31 -9 -52 0 -30 -5 -39 -22 -46 -20 -8 -21 -10 -6 -16
10 -4 15 -11 12 -16 -10 -17 8 -78 25 -82 9 -2 6 -3 -6 -2 -12 1 -28 -2 -35
-6 -8 -6 -2 -9 18 -9 20 0 34 -6 38 -16 9 -24 7 -66 -3 -60 -13 8 -4 -179 11
-220 6 -19 18 -34 25 -34 17 0 16 -15 -2 -33 -11 -12 -12 -17 -2 -20 8 -4 8
-8 2 -14 -12 -10 -16 -45 -4 -38 4 3 7 -7 5 -22 -1 -16 1 -38 6 -51 4 -13 4
-21 -1 -18 -11 7 -174 223 -192 255 -8 14 -22 34 -32 45 -10 11 -15 26 -13 32
3 7 -1 15 -9 17 -7 3 -19 18 -27 34 -9 15 -32 55 -52 87 -20 33 -36 66 -36 73
0 7 -4 13 -9 13 -4 0 -23 33 -41 73 -18 39 -39 87 -47 104 -13 28 -13 42 -2
100 7 38 18 71 24 75 6 5 4 8 -6 8 -11 0 -16 9 -16 24 0 17 4 23 13 19 9 -3
14 2 14 12 0 11 -5 15 -15 12 -16 -7 -31 8 -17 17 5 3 8 27 7 53 0 26 3 54 8
60 5 7 6 24 3 39 -6 22 -4 25 16 22 17 -2 23 -10 23 -27 0 -13 6 -26 13 -29 9
-3 12 3 10 15 -3 20 26 73 41 73 5 0 12 -12 16 -27z m4684 -22 c-7 -23 -16
-41 -22 -41 -5 0 -7 -6 -4 -13 3 -8 1 -20 -4 -28 -6 -10 -9 -7 -9 13 0 21 -4
26 -16 21 -12 -4 -15 0 -13 18 2 13 0 30 -5 37 -6 10 -3 13 10 10 13 -3 18
-12 17 -28 -1 -14 1 -19 3 -12 3 6 10 10 15 7 4 -3 11 7 15 22 8 34 14 46 21
40 2 -3 -1 -23 -8 -46z m-4643 12 c-10 -10 -19 5 -10 18 6 11 8 11 12 0 2 -7
1 -15 -2 -18z m4451 11 c-3 -3 -12 -4 -19 -1 -8 3 -5 6 6 6 11 1 17 -2 13 -5z
m38 -34 c5 1 11 -4 14 -11 2 -6 -1 -9 -6 -6 -5 3 -14 -3 -21 -13 -10 -16 -9
-21 6 -29 14 -9 14 -12 4 -19 -8 -5 -14 -13 -14 -17 0 -4 6 -12 14 -16 10 -7
10 -11 0 -17 -14 -9 -12 -53 3 -65 7 -6 6 -10 -1 -13 -15 -6 -6 -41 12 -48 8
-3 14 -1 14 5 0 6 6 9 13 6 8 -3 14 3 14 14 1 10 -2 19 -8 19 -5 0 -9 -4 -9
-10 0 -5 -6 -10 -12 -10 -8 0 -13 13 -13 30 0 18 5 30 13 30 7 0 10 -5 7 -10
-3 -6 1 -13 11 -17 20 -7 38 19 40 59 1 20 -2 25 -15 21 -13 -4 -14 -3 -2 5
12 8 12 14 3 25 -7 7 -9 17 -5 20 3 4 2 7 -4 7 -6 0 -11 -11 -12 -25 -1 -14
-3 -34 -4 -44 -1 -19 -37 -38 -37 -20 0 5 4 9 9 9 6 0 9 8 9 18 0 9 4 29 10
45 9 21 18 27 39 26 16 0 22 -3 16 -6 -10 -3 -9 -8 2 -19 17 -18 13 -71 -10
-116 -8 -17 -15 -37 -15 -45 0 -7 -7 -16 -16 -20 -8 -3 -13 -11 -11 -17 3 -7
-1 -25 -9 -41 l-13 -30 5 40 c4 31 3 36 -6 23 -6 -9 -11 -37 -12 -62 -1 -24
-6 -42 -11 -39 -5 3 -7 0 -5 -8 6 -17 -18 -69 -32 -69 -5 0 -7 -7 -3 -15 3
-10 0 -15 -8 -13 -9 2 -15 -9 -17 -32 -2 -19 -8 -39 -14 -45 -8 -7 -8 -5 -3 5
5 9 4 12 -1 7 -4 -4 -9 -16 -9 -25 0 -9 -16 -45 -35 -80 -26 -47 -39 -61 -53
-58 -13 3 -17 -2 -15 -23 2 -24 -64 -151 -79 -151 -2 0 -2 13 2 30 4 20 3 30
-6 30 -8 0 -10 -12 -6 -40 5 -39 -10 -68 -28 -52 -5 4 -5 2 -2 -4 4 -7 0 -17
-8 -24 -8 -7 -13 -15 -10 -19 2 -4 -7 -20 -21 -37 l-24 -29 10 28 c5 15 6 27
2 27 -4 0 -1 4 7 9 7 5 14 28 14 55 1 25 5 46 10 46 5 0 5 -10 2 -22 -6 -19
-5 -21 6 -11 19 19 22 53 4 53 -8 0 -15 1 -16 3 0 1 -2 21 -5 44 -4 36 -2 43
13 44 10 0 13 3 6 6 -8 3 -13 25 -13 61 0 54 1 55 16 34 8 -12 12 -27 8 -34
-4 -6 1 -17 11 -25 11 -7 13 -13 7 -13 -7 0 -12 -5 -12 -10 0 -6 6 -9 13 -8 7
2 13 -9 15 -25 5 -44 27 -26 28 24 1 24 7 59 14 78 12 32 14 33 21 13 10 -27
39 -29 39 -3 0 14 6 19 19 16 11 -2 22 3 25 11 5 12 1 14 -17 9 -22 -6 -22 -6
-2 10 11 9 21 21 21 28 1 7 3 15 4 20 5 20 2 85 -4 95 -4 7 -2 12 3 12 15 0
14 27 -1 33 -8 3 -5 6 5 6 11 1 15 6 11 12 -3 6 -6 37 -6 68 0 40 -2 50 -8 36
-6 -15 -9 -16 -9 -4 -1 9 -8 16 -16 16 -22 0 -19 -39 5 -65 21 -22 26 -42 11
-42 -5 0 -12 6 -14 13 -4 9 -8 9 -15 -2 -8 -11 -10 -7 -9 15 3 73 -4 145 -13
139 -5 -3 -7 -13 -4 -23 5 -14 4 -14 -4 -2 -8 10 -8 18 0 27 11 14 39 18 37 6
-1 -5 -1 -21 0 -37 1 -28 1 -28 26 -12 16 11 25 12 25 5 0 -8 4 -8 14 0 10 8
16 9 21 1 3 -5 1 -10 -4 -10 -6 0 -11 -4 -11 -10 0 -5 9 -10 19 -10 16 0 18 5
14 40 -3 22 -2 40 3 40 5 0 15 9 22 20 15 24 9 26 -12 4 -9 -8 -16 -11 -16 -5
0 6 -10 11 -22 10 -13 0 -17 -3 -10 -6 18 -7 15 -53 -3 -53 -18 0 -19 12 -3
28 8 8 8 12 1 12 -6 0 -13 9 -16 19 -3 14 -1 18 10 14 12 -5 13 -2 5 13 -14
28 -3 81 18 87 12 3 17 -1 14 -12 -11 -58 -12 -92 -3 -89 6 2 12 26 14 54 2
28 13 67 25 87 12 20 17 37 12 37 -6 0 -7 10 -4 23 l6 22 5 -23 c3 -13 10 -23
16 -22z m-78 -15 c-2 -14 -6 -25 -10 -25 -4 0 -11 0 -16 0 -4 0 -6 11 -3 25 6
34 34 34 29 0z m146 8 c-7 -2 -19 -2 -25 0 -7 3 -2 5 12 5 14 0 19 -2 13 -5z
m-4938 -43 c-4 -17 -9 -29 -12 -26 -3 2 -2 19 2 36 4 17 9 29 12 26 3 -2 2
-19 -2 -36z m4897 7 c-7 -8 -9 -16 -6 -20 3 -3 2 -13 -3 -22 -8 -13 -10 -9
-10 17 0 18 5 36 11 40 16 10 21 1 8 -15z m-1329 -4 c-7 -2 -19 -2 -25 0 -7 3
-2 5 12 5 14 0 19 -2 13 -5z m1488 -64 c-5 -13 -10 -19 -10 -12 -1 15 10 45
15 40 3 -2 0 -15 -5 -28z m-5017 -5 c3 -8 2 -12 -4 -9 -6 3 -10 10 -10 16 0
14 7 11 14 -7z m3426 1 c19 -7 28 -14 20 -14 -8 0 -28 6 -45 14 -39 17 -21 18
25 0z m-3440 -26 c0 -5 -8 -5 -17 -2 -13 5 -15 2 -10 -13 5 -14 2 -12 -12 6
-11 14 -17 27 -15 30 3 2 9 -2 14 -10 8 -12 10 -12 10 4 0 15 3 16 15 6 8 -7
15 -16 15 -21z m3553 4 c-13 -2 -33 -2 -45 0 -13 2 -3 4 22 4 25 0 35 -2 23
-4z m1135 -18 c-3 -3 -9 2 -12 12 -6 14 -5 15 5 6 7 -7 10 -15 7 -18z m336 -1
c3 -8 2 -12 -4 -9 -6 3 -10 10 -10 16 0 14 7 11 14 -7z m-343 -23 c-11 -7 -10
-10 5 -14 16 -4 16 -5 -3 -6 -14 -1 -23 5 -23 14 0 8 8 15 18 15 14 0 14 -2 3
-9z m-4583 -26 c-3 -3 -9 2 -12 12 -6 14 -5 15 5 6 7 -7 10 -15 7 -18z m4913
-2 c-12 -20 -14 -14 -5 12 4 9 9 14 11 11 3 -2 0 -13 -6 -23z m-5011 -29 c0
-8 -5 -12 -10 -9 -6 4 -8 11 -5 16 9 14 15 11 15 -7z m4965 -34 c3 -5 1 -10
-4 -10 -6 0 -11 5 -11 10 0 6 2 10 4 10 3 0 8 -4 11 -10z m-4881 -25 c9 -14
13 -25 8 -25 -5 0 -14 11 -20 25 -6 14 -10 25 -8 25 2 0 11 -11 20 -25z m4566
-33 c0 -1 -9 2 -20 8 -11 6 -20 15 -20 20 0 6 9 2 20 -7 11 -10 20 -19 20 -21z
m320 24 c0 -3 -4 -8 -10 -11 -5 -3 -10 -1 -10 4 0 6 5 11 10 11 6 0 10 -2 10
-4z m47 -38 c-3 -7 -5 -2 -5 12 0 14 2 19 5 13 2 -7 2 -19 0 -25z m-4943 -30
c6 -4 7 -10 3 -15 -10 -9 -27 16 -26 37 1 13 1 13 6 0 3 -8 11 -18 17 -22z
m4574 7 c-3 -3 -9 2 -12 12 -6 14 -5 15 5 6 7 -7 10 -15 7 -18z m349 -7 c-3
-8 -6 -5 -6 6 -1 11 2 17 5 13 3 -3 4 -12 1 -19z m-4977 8 c0 -3 -4 -8 -10
-11 -5 -3 -10 -1 -10 4 0 6 5 11 10 11 6 0 10 -2 10 -4z m4925 -6 c3 -5 1 -10
-4 -10 -6 0 -11 5 -11 10 0 6 2 10 4 10 3 0 8 -4 11 -10z m-4832 -40 c-3 -12
-8 -19 -11 -16 -5 6 5 36 12 36 2 0 2 -9 -1 -20z m-50 -8 c-3 -7 -9 -10 -12
-5 -3 4 -10 11 -15 15 -4 4 1 6 12 5 12 -1 18 -6 15 -15z m4847 -4 c0 -11 -12
-10 -30 2 -12 7 -10 9 8 7 12 0 22 -5 22 -9z m-4050 -29 c0 -5 -4 -9 -10 -9
-5 0 -10 7 -10 16 0 8 5 12 10 9 6 -3 10 -10 10 -16z m4014 -17 c3 -5 -1 -9
-9 -9 -8 0 -12 4 -9 9 3 4 7 8 9 8 2 0 6 -4 9 -8z m-4737 -54 c-3 -8 -6 -5 -6
6 -1 11 2 17 5 13 3 -3 4 -12 1 -19z m736 -23 c4 -27 3 -35 -3 -25 -5 8 -10
28 -10 44 0 39 6 30 13 -19z m-692 8 c-12 -20 -14 -14 -5 12 4 9 9 14 11 11 3
-2 0 -13 -6 -23z m4711 -15 c-7 -7 -12 -8 -12 -2 0 14 12 26 19 19 2 -3 -1
-11 -7 -17z m-4781 -11 c-10 -9 -11 -8 -5 6 3 10 9 15 12 12 3 -3 0 -11 -7
-18z m66 -3 c-3 -3 -12 -4 -19 -1 -8 3 -5 6 6 6 11 1 17 -2 13 -5z m653 -4 c0
-5 -4 -10 -10 -10 -5 0 -10 5 -10 10 0 6 5 10 10 10 6 0 10 -4 10 -10z m4020
0 c0 -5 -8 -10 -17 -10 -15 0 -16 2 -3 10 19 12 20 12 20 0z m37 -37 c-3 -10
-5 -4 -5 12 0 17 2 24 5 18 2 -7 2 -21 0 -30z m-4727 20 c0 -5 -5 -15 -10 -23
-8 -12 -10 -11 -10 8 0 12 5 22 10 22 6 0 10 -3 10 -7z m-35 -23 c3 -5 1 -10
-4 -10 -6 0 -11 5 -11 10 0 6 2 10 4 10 3 0 8 -4 11 -10z m4643 -51 c-20 -26
-37 -41 -24 -20 3 4 10 20 16 35 5 15 14 24 20 21 6 -4 1 -18 -12 -36z m-4668
27 c0 -3 -4 -8 -10 -11 -5 -3 -10 -1 -10 4 0 6 5 11 10 11 6 0 10 -2 10 -4z
m90 -2 c0 -8 -19 -13 -24 -6 -3 5 1 9 9 9 8 0 15 -2 15 -3z m10 -52 c0 -15 -2
-15 -10 -2 -13 20 -13 33 0 25 6 -3 10 -14 10 -23z m4380 7 c0 -6 -4 -7 -10
-4 -5 3 -10 11 -10 16 0 6 5 7 10 4 6 -3 10 -11 10 -16z m154 -51 c-4 -6 0
-15 7 -20 12 -8 11 -9 -1 -5 -8 2 -16 13 -16 25 -1 12 3 19 8 16 4 -3 5 -10 2
-16z m-4488 -24 c-6 -21 -10 -24 -19 -14 -9 10 -9 14 1 17 6 3 12 12 12 21 0
8 3 13 6 9 4 -3 3 -18 0 -33z m624 -18 c0 -30 -4 -66 -10 -80 -11 -29 -44 -35
-54 -11 -3 8 -1 15 5 15 6 0 8 7 5 16 -19 49 -18 61 6 60 23 -1 25 5 13 37 -5
13 -2 17 14 17 19 0 21 -6 21 -54z m3897 22 c-3 -8 -6 -5 -6 6 -1 11 2 17 5
13 3 -3 4 -12 1 -19z m-4462 -17 c-3 -6 -11 -11 -17 -11 -6 0 -6 6 2 15 14 17
26 13 15 -4z m4482 -38 c-3 -10 -5 -4 -5 12 0 17 2 24 5 18 2 -7 2 -21 0 -30z
m-29 15 c-5 -14 -36 -20 -43 -8 -3 5 4 7 15 5 11 -2 20 0 20 6 0 5 3 9 6 9 3
0 4 -5 2 -12z m-4418 -33 c14 -16 10 -18 -14 -9 -9 3 -16 10 -16 15 0 14 16
11 30 -6z m4350 -15 c0 -5 -2 -10 -4 -10 -3 0 -8 5 -11 10 -3 6 -1 10 4 10 6
0 11 -4 11 -10z m-3493 -25 c-9 -9 -14 -10 -19 -1 -13 19 -9 24 11 19 16 -4
17 -8 8 -18z m-833 4 c9 8 13 7 13 -3 0 -17 -30 -14 -33 3 -2 7 0 7 3 1 3 -7
9 -8 17 -1z m576 -96 c0 -13 5 -23 10 -23 6 0 10 8 10 18 0 11 7 6 20 -16 34
-56 14 -118 -40 -124 l-25 -3 -1 98 c-1 57 -7 104 -13 110 -6 6 -11 18 -11 27
1 24 50 -62 50 -87z m-293 50 c-3 -10 -5 -4 -5 12 0 17 2 24 5 18 2 -7 2 -21
0 -30z m369 -6 c1 -28 -2 -27 -26 13 -6 12 -4 16 8 16 12 0 17 -9 18 -29z
m3638 15 c3 -5 -1 -9 -9 -9 -8 0 -12 4 -9 9 3 4 7 8 9 8 2 0 6 -4 9 -8z
m-4334 -12 c8 -5 12 -11 10 -14 -3 -2 -14 2 -24 10 -22 15 -10 19 14 4z m1387
-37 c-3 -10 -5 -2 -5 17 0 19 2 27 5 18 2 -10 2 -26 0 -35z m2998 37 c-3 -5
-11 -10 -16 -10 -6 0 -7 5 -4 10 3 6 11 10 16 10 6 0 7 -4 4 -10z m-3004 -60
c5 0 9 -9 9 -20 0 -11 5 -20 11 -20 7 0 8 -12 4 -32 -9 -43 -9 -43 -44 -25
-30 15 -71 13 -71 -4 0 -5 11 -9 24 -9 14 0 28 -5 32 -11 3 -6 14 -9 24 -6 27
7 52 -11 41 -31 -4 -9 -6 -23 -4 -29 3 -7 2 -13 -2 -13 -12 0 -80 50 -77 58 1
4 -6 8 -18 10 -22 4 -22 4 -24 44 -1 15 2 24 7 21 5 -3 8 0 6 6 -3 7 -8 12
-13 11 -10 -2 -46 50 -46 65 0 6 8 -3 19 -18 17 -27 19 -27 24 -8 3 15 13 21
31 21 25 0 26 -2 20 -40 -5 -32 -3 -40 8 -40 24 0 19 88 -6 96 -17 6 -16 7 5
18 22 11 24 10 27 -16 2 -15 7 -28 13 -28z m-1311 40 c0 -5 -6 -10 -14 -10 -8
0 -18 5 -21 10 -3 6 3 10 14 10 12 0 21 -4 21 -10z m43 -13 c3 -8 -1 -14 -8
-14 -7 0 -11 6 -8 14 3 7 6 13 8 13 2 0 5 -6 8 -13z m573 -14 c-7 -7 -26 7
-26 19 0 6 6 6 15 -2 9 -7 13 -15 11 -17z m3600 10 c7 -10 13 -25 13 -33 0 -8
-4 -5 -9 8 -5 12 -14 22 -20 22 -5 0 -10 5 -10 10 0 15 11 12 26 -7z m-2599
-29 c-3 -3 -12 -4 -19 -1 -8 3 -5 6 6 6 11 1 17 -2 13 -5z m36 -44 c-24 -44
-28 -47 -39 -32 -17 22 -17 32 0 32 8 0 17 7 20 16 3 9 11 12 18 8 8 -5 9 -2
5 9 -4 11 -1 17 8 17 12 0 9 -11 -12 -50z m167 40 c0 -5 -5 -10 -11 -10 -5 0
-7 5 -4 10 3 6 8 10 11 10 2 0 4 -4 4 -10z m-30 -10 c0 -5 -5 -10 -11 -10 -5
0 -7 5 -4 10 3 6 8 10 11 10 2 0 4 -4 4 -10z m2381 -18 c-6 -11 -8 -22 -6 -26
3 -3 2 -4 -2 -1 -3 3 -12 0 -18 -5 -9 -8 -14 -6 -18 4 -4 11 -1 13 10 9 12 -5
14 -3 8 7 -6 9 -4 11 5 5 10 -6 12 -4 7 9 -4 10 -3 15 3 11 6 -3 10 -1 10 6 0
7 3 10 6 7 3 -4 1 -15 -5 -26z m-2563 0 c-10 -2 -18 -11 -18 -19 0 -9 -3 -14
-6 -10 -3 3 -3 15 1 26 4 14 11 18 23 13 16 -6 16 -7 0 -10z m149 2 c-3 -3
-12 -4 -19 -1 -8 3 -5 6 6 6 11 1 17 -2 13 -5z m50 -29 c-15 -16 -19 -13 -11
9 3 9 10 13 15 10 5 -3 3 -11 -4 -19z m-1737 -10 c0 -8 -2 -15 -4 -15 -2 0 -6
7 -10 15 -3 8 -1 15 4 15 6 0 10 -7 10 -15z m294 0 c-3 -7 -14 -13 -25 -12
-32 2 -24 22 10 24 13 1 18 -3 15 -12z m828 0 c11 -15 9 -75 -2 -75 -5 0 -10
6 -10 14 0 8 -7 16 -15 20 -22 8 -20 54 3 52 9 0 20 -5 24 -11z m-1057 -25 c3
-5 1 -10 -4 -10 -6 0 -11 5 -11 10 0 6 2 10 4 10 3 0 8 -4 11 -10z m1467 -15
c-2 -14 -6 -25 -8 -25 -2 0 -4 11 -4 25 0 14 4 25 9 25 4 0 6 -11 3 -25z
m-1595 -7 c-3 -8 -6 -5 -6 6 -1 11 2 17 5 13 3 -3 4 -12 1 -19z m2140 -20 c-3
-7 -5 -2 -5 12 0 14 2 19 5 13 2 -7 2 -19 0 -25z m2070 10 c-3 -8 -6 -5 -6 6
-1 11 2 17 5 13 3 -3 4 -12 1 -19z m-4089 -1 c8 -10 6 -13 -7 -13 -11 0 -17 6
-14 13 3 7 6 13 8 13 1 0 7 -6 13 -13z m3956 -12 c-4 -8 -10 -12 -15 -9 -11 6
-2 24 11 24 5 0 7 -7 4 -15z m46 11 c0 -2 -8 -10 -17 -17 -16 -13 -17 -12 -4
4 13 16 21 21 21 13z m-3400 -16 c0 -5 -2 -10 -4 -10 -3 0 -8 5 -11 10 -3 6
-1 10 4 10 6 0 11 -4 11 -10z m-453 -22 c-3 -8 -6 -5 -6 6 -1 11 2 17 5 13 3
-3 4 -12 1 -19z m898 2 c3 -5 1 -10 -4 -10 -6 0 -11 5 -11 10 0 6 2 10 4 10 3
0 8 -4 11 -10z m434 -35 l0 -20 -9 20 c-5 11 -9 27 -9 35 -1 13 0 13 9 0 5 -8
9 -24 9 -35z m-932 13 c-3 -8 -6 -5 -6 6 -1 11 2 17 5 13 3 -3 4 -12 1 -19z
m3468 2 c-3 -5 -12 -10 -18 -10 -7 0 -6 4 3 10 19 12 23 12 15 0z m-3915 -47
c0 -3 -8 1 -18 10 -10 10 -22 14 -26 10 -4 -4 -4 0 -1 9 6 15 8 15 26 -3 10
-10 19 -22 19 -26z m1827 41 c-3 -3 -12 -4 -19 -1 -8 3 -5 6 6 6 11 1 17 -2
13 -5z m-1910 -19 c8 -9 13 -18 11 -21 -3 -2 -13 5 -23 16 -21 23 -11 27 12 5z
m189 -24 c-4 -5 12 -12 33 -16 29 -5 38 -11 34 -21 -7 -19 -33 -17 -62 5 -20
15 -23 41 -5 41 3 0 3 -4 0 -9z m1651 -13 c-3 -8 -6 -5 -6 6 -1 11 2 17 5 13
3 -3 4 -12 1 -19z m2015 -30 c-8 -8 -9 -4 -5 13 4 13 8 18 11 10 2 -7 -1 -18
-6 -23z m-3707 -8 c16 -17 16 -20 3 -15 -11 4 -18 0 -21 -12 -2 -10 -3 -5 -1
11 4 26 2 27 -14 15 -15 -13 -16 -12 -3 4 17 21 14 21 36 -3z m1045 -12 c0
-34 -19 -46 -37 -23 -7 11 -13 15 -13 10 0 -4 -3 -6 -6 -3 -10 11 18 44 37 44
14 0 19 -7 19 -28z m2640 -18 c0 -5 -4 -10 -10 -10 -5 0 -10 5 -10 10 0 6 5
10 10 10 6 0 10 -4 10 -10z m-3440 -15 c-7 -9 -15 -13 -17 -11 -7 7 7 26 19
26 6 0 6 -6 -2 -15z m738 4 c9 0 4 -5 -12 -9 -16 -5 -33 -7 -38 -4 -14 9 3 26
19 20 8 -3 22 -6 31 -7z m2645 -24 c-3 -9 -8 -14 -10 -11 -3 3 -2 9 2 15 9 16
15 13 8 -4z m-3566 -17 c-2 -12 -10 -24 -18 -26 -11 -3 -12 -2 -1 6 8 5 13 12
13 16 -2 15 -1 26 4 26 3 0 3 -10 2 -22z m793 -28 c0 -5 -4 -10 -10 -10 -5 0
-10 5 -10 10 0 6 5 10 10 10 6 0 10 -4 10 -10z m2735 -20 c-3 -5 -12 -10 -18
-10 -7 0 -6 4 3 10 19 12 23 12 15 0z"/>
<path d="M2962 3730 c0 -14 2 -19 5 -12 2 6 2 18 0 25 -3 6 -5 1 -5 -13z"/>
<path d="M744 3495 c15 -14 35 -25 44 -25 10 0 3 10 -20 25 -20 14 -40 25 -44
25 -4 0 5 -11 20 -25z"/>
<path d="M45 1660 c-10 -11 -15 -20 -11 -20 11 0 39 30 34 36 -3 2 -13 -5 -23
-16z"/>
<path d="M121 1424 c0 -11 3 -14 6 -6 3 7 2 16 -1 19 -3 4 -6 -2 -5 -13z"/>
<path d="M120 1360 c0 -5 5 -10 11 -10 5 0 7 5 4 10 -3 6 -8 10 -11 10 -2 0
-4 -4 -4 -10z"/>
<path d="M358 1413 c7 -3 16 -2 19 1 4 3 -2 6 -13 5 -11 0 -14 -3 -6 -6z"/>
<path d="M310 1361 c0 -6 5 -13 10 -16 6 -3 10 1 10 9 0 9 -4 16 -10 16 -5 0
-10 -4 -10 -9z"/>
<path d="M432 1325 c0 -16 2 -22 5 -12 2 9 2 23 0 30 -3 6 -5 -1 -5 -18z"/>
<path d="M345 1320 c3 -5 8 -10 11 -10 2 0 4 5 4 10 0 6 -5 10 -11 10 -5 0 -7
-4 -4 -10z"/>
<path d="M390 1311 c0 -5 5 -13 10 -16 6 -3 10 -2 10 4 0 5 -4 13 -10 16 -5 3
-10 2 -10 -4z"/>
<path d="M370 1270 c0 -5 -6 -10 -14 -10 -8 0 -15 -14 -18 -35 -5 -43 14 -42
23 1 l7 29 1 -34 c1 -34 1 -34 22 -15 11 10 16 20 10 22 -14 5 -14 32 0 32 5
0 7 5 4 10 -3 6 -13 10 -21 10 -8 0 -14 -4 -14 -10z"/>
<path d="M370 1156 c0 -8 -9 -20 -20 -26 -11 -6 -18 -15 -15 -20 7 -11 55 12
55 28 0 6 0 15 1 19 0 4 -4 9 -10 11 -6 2 -11 -3 -11 -12z"/>
<path d="M475 1160 c-4 -6 -2 -17 4 -23 15 -15 25 -2 13 19 -7 12 -11 13 -17
4z"/>
<path d="M335 1150 c3 -5 11 -10 16 -10 6 0 7 5 4 10 -3 6 -11 10 -16 10 -6 0
-7 -4 -4 -10z"/>
<path d="M361 1091 c-10 -6 -11 -13 -2 -29 13 -25 14 -35 2 -28 -5 4 -7 -3 -4
-14 3 -11 9 -20 14 -20 5 0 5 7 2 17 -4 10 -2 14 4 10 6 -4 9 7 8 26 -1 18 3
35 9 39 16 11 -16 10 -33 -1z"/>
<path d="M262 1045 c0 -16 2 -22 5 -12 2 9 2 23 0 30 -3 6 -5 -1 -5 -18z"/>
<path d="M661 1054 c0 -11 3 -14 6 -6 3 7 2 16 -1 19 -3 4 -6 -2 -5 -13z"/>
<path d="M332 1040 c0 -14 2 -19 5 -12 2 6 2 18 0 25 -3 6 -5 1 -5 -13z"/>
<path d="M330 995 c0 -8 4 -15 8 -15 5 0 9 7 9 15 0 8 -4 15 -9 15 -4 0 -8 -7
-8 -15z"/>
<path d="M533 971 c4 -19 2 -31 -6 -35 -7 -2 -3 -5 8 -5 17 -1 17 -3 5 -11
-13 -8 -12 -10 4 -10 12 0 16 5 12 16 -3 9 -6 29 -6 45 0 16 -5 29 -11 29 -7
0 -9 -11 -6 -29z"/>
<path d="M472 960 c0 -14 2 -19 5 -12 2 6 2 18 0 25 -3 6 -5 1 -5 -13z"/>
<path d="M360 894 c0 -8 5 -12 10 -9 6 3 10 10 10 16 0 5 -4 9 -10 9 -5 0 -10
-7 -10 -16z"/>
<path d="M332 880 c0 -14 2 -19 5 -12 2 6 2 18 0 25 -3 6 -5 1 -5 -13z"/>
<path d="M528 893 c6 -2 18 -2 25 0 6 3 1 5 -13 5 -14 0 -19 -2 -12 -5z"/>
<path d="M528 873 c7 -3 16 -2 19 1 4 3 -2 6 -13 5 -11 0 -14 -3 -6 -6z"/>
<path d="M335 840 c3 -5 8 -10 11 -10 2 0 4 5 4 10 0 6 -5 10 -11 10 -5 0 -7
-4 -4 -10z"/>
<path d="M598 843 c7 -3 16 -2 19 1 4 3 -2 6 -13 5 -11 0 -14 -3 -6 -6z"/>
<path d="M376 815 c-9 -26 -7 -32 5 -12 6 10 9 21 6 23 -2 3 -7 -2 -11 -11z"/>
<path d="M606 772 c-2 -4 4 -8 15 -8 10 0 19 4 19 8 0 4 -6 8 -14 8 -8 0 -17
-4 -20 -8z"/>
<path d="M625 740 c3 -5 8 -10 11 -10 2 0 4 5 4 10 0 6 -5 10 -11 10 -5 0 -7
-4 -4 -10z"/>
<path d="M502 715 c0 -16 2 -22 5 -12 2 9 2 23 0 30 -3 6 -5 -1 -5 -18z"/>
<path d="M622 660 c0 -14 2 -19 5 -12 2 6 2 18 0 25 -3 6 -5 1 -5 -13z"/>
<path d="M470 629 c0 -5 5 -7 10 -4 6 3 10 8 10 11 0 2 -4 4 -10 4 -5 0 -10
-5 -10 -11z"/>
<path d="M605 550 c-3 -5 1 -10 9 -10 9 0 16 5 16 10 0 6 -4 10 -9 10 -6 0
-13 -4 -16 -10z"/>
<path d="M608 523 c7 -3 16 -2 19 1 4 3 -2 6 -13 5 -11 0 -14 -3 -6 -6z"/>
<path d="M590 429 c0 -5 5 -7 10 -4 6 3 10 8 10 11 0 2 -4 4 -10 4 -5 0 -10
-5 -10 -11z"/>
<path d="M667 353 c-4 -3 -7 -11 -7 -17 0 -6 5 -5 12 2 6 6 9 14 7 17 -3 3 -9
2 -12 -2z"/>
<path d="M4820 1086 c0 -9 7 -16 16 -16 17 0 14 22 -4 28 -7 2 -12 -3 -12 -12z"/>
<path d="M4833 1053 c-7 -2 -13 -13 -13 -24 0 -10 -4 -19 -9 -19 -6 0 -6 -12
-2 -27 4 -16 6 -46 5 -68 l-3 -40 11 33 c6 17 15 32 19 32 5 0 9 7 9 15 0 8 7
15 15 15 8 0 15 5 15 10 0 6 -7 10 -15 10 -10 0 -13 9 -10 35 5 35 2 38 -22
28z"/>
<path d="M4580 690 c0 -5 5 -10 11 -10 5 0 7 5 4 10 -3 6 -8 10 -11 10 -2 0
-4 -4 -4 -10z"/>
<path d="M4588 643 c-19 -5 -25 -23 -9 -23 17 0 41 12 41 21 0 9 -4 10 -32 2z"/>
<path d="M4582 590 c0 -14 2 -19 5 -12 2 6 2 18 0 25 -3 6 -5 1 -5 -13z"/>
<path d="M890 594 c0 -17 22 -14 28 4 2 7 -3 12 -12 12 -9 0 -16 -7 -16 -16z"/>
<path d="M1755 280 c4 -6 11 -8 16 -5 14 9 11 15 -7 15 -8 0 -12 -5 -9 -10z"/>
<path d="M2075 370 c4 -6 11 -8 16 -5 14 9 11 15 -7 15 -8 0 -12 -5 -9 -10z"/>
<path d="M3025 3923 c-80 -34 -115 -60 -115 -85 0 -19 4 -20 53 -15 57 6 169
47 198 73 9 8 15 23 12 35 -8 28 -73 25 -148 -8z"/>
<path d="M3190 3934 c0 -8 5 -12 10 -9 6 3 10 10 10 16 0 5 -4 9 -10 9 -5 0
-10 -7 -10 -16z"/>
<path d="M1031 3704 c0 -11 3 -14 6 -6 3 7 2 16 -1 19 -3 4 -6 -2 -5 -13z"/>
<path d="M4698 3693 c7 -3 16 -2 19 1 4 3 -2 6 -13 5 -11 0 -14 -3 -6 -6z"/>
<path d="M1943 3593 c15 -2 37 -2 50 0 12 2 0 4 -28 4 -27 0 -38 -2 -22 -4z"/>
<path d="M2038 3593 c12 -2 20 -9 16 -14 -3 -5 -10 -7 -15 -4 -5 3 -6 -1 -2
-10 4 -12 8 -13 13 -5 6 9 9 9 12 -1 8 -22 18 -5 11 19 -4 16 -12 22 -32 21
-23 -2 -24 -2 -3 -6z"/>
<path d="M1921 3561 c-8 -5 -9 -11 -3 -15 5 -3 12 1 16 9 6 17 6 18 -13 6z"/>
<path d="M2060 3530 c0 -5 6 -10 13 -10 8 0 7 -4 -3 -11 -12 -8 -10 -9 7 -4
15 4 23 1 27 -13 6 -18 36 -27 36 -10 0 4 -6 8 -14 8 -8 0 -16 6 -19 14 -7 19
-47 41 -47 26z"/>
<path d="M5050 3503 c0 -14 2 -15 9 -4 5 8 14 10 21 6 9 -5 11 -4 6 3 -11 18
-36 14 -36 -5z"/>
<path d="M4890 3459 c0 -5 5 -7 10 -4 6 3 10 8 10 11 0 2 -4 4 -10 4 -5 0 -10
-5 -10 -11z"/>
<path d="M2165 3410 c3 -5 11 -10 16 -10 6 0 7 5 4 10 -3 6 -11 10 -16 10 -6
0 -7 -4 -4 -10z"/>
<path d="M2456 3362 c-3 -6 3 -12 15 -15 12 -3 19 -1 16 6 -5 15 -24 20 -31 9z"/>
<path d="M4945 3291 c-6 -11 9 -23 19 -14 9 9 7 23 -3 23 -6 0 -12 -4 -16 -9z"/>
<path d="M4856 3243 c-6 -15 10 -27 19 -13 3 5 18 8 33 6 15 -2 19 -1 10 1
-10 2 -18 8 -18 13 0 13 -39 7 -44 -7z"/>
<path d="M4935 3200 c-16 -7 -17 -9 -3 -9 9 -1 20 4 23 9 7 11 7 11 -20 0z"/>
<path d="M240 3110 c0 -5 5 -10 11 -10 5 0 7 5 4 10 -3 6 -8 10 -11 10 -2 0
-4 -4 -4 -10z"/>
<path d="M5090 2920 c0 -5 5 -10 10 -10 6 0 10 5 10 10 0 6 -4 10 -10 10 -5 0
-10 -4 -10 -10z"/>
<path d="M5092 2820 c0 -19 2 -27 5 -17 2 9 2 25 0 35 -3 9 -5 1 -5 -18z"/>
<path d="M138 2723 c6 -2 18 -2 25 0 6 3 1 5 -13 5 -14 0 -19 -2 -12 -5z"/>
<path d="M5105 2620 c3 -5 8 -10 11 -10 2 0 4 5 4 10 0 6 -5 10 -11 10 -5 0
-7 -4 -4 -10z"/>
<path d="M35 2600 c-3 -5 -1 -10 4 -10 6 0 11 5 11 10 0 6 -2 10 -4 10 -3 0
-8 -4 -11 -10z"/>
<path d="M2591 624 c0 -11 3 -14 6 -6 3 7 2 16 -1 19 -3 4 -6 -2 -5 -13z"/>
<path d="M2550 580 c-9 -6 -10 -10 -3 -10 6 0 15 5 18 10 8 12 4 12 -15 0z"/>
<path d="M1405 440 c3 -5 8 -10 11 -10 2 0 4 5 4 10 0 6 -5 10 -11 10 -5 0 -7
-4 -4 -10z"/>
<path d="M2530 400 c0 -5 5 -10 11 -10 5 0 7 5 4 10 -3 6 -8 10 -11 10 -2 0
-4 -4 -4 -10z"/>
<path d="M1380 385 c0 -8 4 -15 10 -15 5 0 7 7 4 15 -4 8 -8 15 -10 15 -2 0
-4 -7 -4 -15z"/>
<path d="M1462 360 c0 -19 2 -27 5 -17 2 9 2 25 0 35 -3 9 -5 1 -5 -18z"/>
<path d="M2531 363 c7 -12 15 -20 18 -17 3 2 -3 12 -13 22 -17 16 -18 16 -5
-5z"/>
<path d="M2213 314 c24 -13 27 -20 22 -45 -5 -23 -4 -28 9 -23 11 4 13 14 9
35 -5 29 10 41 21 17 3 -7 5 -4 3 6 -2 15 -11 20 -47 22 l-45 4 28 -16z"/>
<path d="M2380 310 c1 -8 7 -24 15 -34 19 -25 19 -16 0 20 -8 16 -15 22 -15
14z"/>
<path d="M1458 298 c-9 -25 -9 -98 -1 -98 5 0 9 8 10 18 1 9 3 29 6 44 5 30
-7 59 -15 36z"/>
<path d="M2320 290 c-9 -6 -10 -10 -3 -10 6 0 15 5 18 10 8 12 4 12 -15 0z"/>
<path d="M1391 265 c2 -45 0 -51 -11 -35 -8 13 -10 12 -10 -2 0 -11 8 -18 20
-18 22 0 26 29 9 65 -7 17 -9 16 -8 -10z"/>
<path d="M1422 265 c0 -16 2 -22 5 -12 2 9 2 23 0 30 -3 6 -5 -1 -5 -18z"/>
<path d="M2200 240 c0 -5 5 -10 10 -10 6 0 10 5 10 10 0 6 -4 10 -10 10 -5 0
-10 -4 -10 -10z"/>
<path d="M2250 235 c-17 -21 -5 -31 15 -12 8 9 15 18 15 21 0 11 -18 6 -30 -9z"/>
<path d="M2316 241 c-4 -5 -6 -24 -5 -43 1 -18 -1 -42 -4 -53 -3 -12 1 -31 8
-45 11 -21 12 -19 9 24 -2 26 1 44 5 41 15 -9 19 19 5 33 -7 7 -11 21 -9 32 4
21 0 26 -9 11z"/>
<path d="M2378 243 c7 -3 16 -2 19 1 4 3 -2 6 -13 5 -11 0 -14 -3 -6 -6z"/>
<path d="M2340 221 c0 -6 9 -8 19 -6 14 3 18 -1 14 -11 -3 -8 0 -14 6 -14 6 0
11 9 11 20 0 15 -7 20 -25 20 -14 0 -25 -4 -25 -9z"/>
<path d="M1306 195 c4 -8 8 -15 10 -15 2 0 4 7 4 15 0 8 -4 15 -10 15 -5 0 -7
-7 -4 -15z"/>
<path d="M1455 170 c-3 -5 1 -10 9 -10 9 0 16 5 16 10 0 6 -4 10 -9 10 -6 0
-13 -4 -16 -10z"/>
<path d="M2220 161 c0 -11 -3 -28 -6 -38 -5 -17 -5 -17 6 0 6 9 18 17 25 17
20 0 19 26 -1 34 -23 9 -24 8 -24 -13z"/>
<path d="M2360 168 c0 -9 4 -19 10 -23 10 -6 2 -36 -14 -47 -7 -5 -4 -8 6 -8
12 0 15 -5 11 -16 -3 -9 0 -20 8 -25 10 -6 10 -9 2 -9 -7 0 -13 -5 -13 -12 0
-8 6 -6 16 4 12 12 15 24 9 45 -4 15 -9 41 -10 56 -3 32 -25 62 -25 35z"/>
<path d="M1311 134 c0 -11 3 -14 6 -6 3 7 2 16 -1 19 -3 4 -6 -2 -5 -13z"/>
<path d="M1380 140 c0 -8 5 -22 10 -30 9 -13 10 -13 10 0 0 8 -5 22 -10 30 -9
13 -10 13 -10 0z"/>
<path d="M2137 120 c-7 -32 0 -60 13 -60 5 0 7 13 5 30 -3 22 0 30 11 30 14 0
14 2 0 15 -20 21 -23 19 -29 -15z"/>
<path d="M2243 106 c-6 -8 -10 -16 -7 -18 2 -3 5 -23 6 -46 1 -23 5 -42 9 -42
11 0 18 64 8 75 -14 14 -11 28 5 22 10 -4 13 -1 9 9 -6 17 -14 17 -30 0z"/>
<path d="M2190 100 c0 -5 5 -10 11 -10 5 0 7 5 4 10 -3 6 -8 10 -11 10 -2 0
-4 -4 -4 -10z"/>
<path d="M2421 93 c0 -5 4 -17 9 -28 8 -18 9 -17 9 8 1 15 -3 27 -9 27 -5 0
-10 -3 -9 -7z"/>
<path d="M1376 82 c-2 -4 -1 -14 5 -22 7 -12 9 -10 9 8 0 23 -5 28 -14 14z"/>
<path d="M2060 80 c0 -5 7 -10 15 -10 8 0 15 5 15 10 0 6 -7 10 -15 10 -8 0
-15 -4 -15 -10z"/>
<path d="M1270 60 c0 -5 5 -10 10 -10 6 0 10 5 10 10 0 6 -4 10 -10 10 -5 0
-10 -4 -10 -10z"/>
<path d="M1310 41 c0 -25 6 -27 13 -6 4 8 2 17 -3 20 -6 4 -10 -3 -10 -14z"/>
<path d="M2307 49 c6 -6 10 -17 9 -23 -2 -6 -1 -8 1 -3 3 4 8 5 12 3 4 -3 7 4
7 15 0 12 -7 19 -20 19 -15 0 -17 -3 -9 -11z"/>
<path d="M1385 10 c-3 -5 -1 -10 4 -10 6 0 11 5 11 10 0 6 -2 10 -4 10 -3 0
-8 -4 -11 -10z"/>
<path d="M2368 3 c6 -2 18 -2 25 0 6 3 1 5 -13 5 -14 0 -19 -2 -12 -5z"/>
</g>
</svg>
